<svg id="Layer_1" xmlns="http://www.w3.org/2000/svg" width="310" height="90" viewBox="-304.7 358.5 310 90"><style>.st0{fill:#434343}.st1{fill:#fff}</style><path id="XMLID_3_" class="st0" d="M-39.7 448.5h-220c-24.9 0-45-20.1-45-45s20.1-45 45-45h220c24.9 0 45 20.1 45 45s-20.1 45-45 45z"/><g id="XMLID_1_"><path id="XMLID_182_" class="st1" d="M-224.5 403.3c-.1-6.9 5.6-10.2 5.9-10.3-3.2-4.7-8.2-5.3-9.9-5.4-4.2-.4-8.2 2.5-10.4 2.5-2.2 0-5.5-2.5-9-2.4-4.5.1-8.8 2.7-11.1 6.8-4.8 8.3-1.2 20.6 3.4 27.3 2.3 3.3 5 7 8.5 6.9 3.5-.1 4.7-2.2 8.9-2.2 4.1 0 5.3 2.2 8.9 2.1 3.7-.1 6-3.3 8.3-6.6 2.7-3.8 3.7-7.5 3.8-7.7-.2-.1-7.3-2.8-7.3-11"/><path id="XMLID_181_" class="st1" d="M-231.3 383.1c1.9-2.3 3.1-5.5 2.8-8.7-2.7.1-6 1.9-8 4.1-1.7 2-3.2 5.3-2.8 8.4 2.9.3 6-1.5 8-3.8"/><path id="XMLID_178_" class="st1" d="M-175.8 426.6h-4.6l-2.5-7.9h-8.7l-2.4 7.9h-4.4l8.6-26.7h5.3l8.7 26.7zm-7.8-11.1l-2.3-7c-.2-.7-.7-2.4-1.3-5h-.1c-.3 1.1-.7 2.8-1.3 5l-2.2 7h7.2z"/><path id="XMLID_175_" class="st1" d="M-153.7 416.7c0 3.3-.9 5.9-2.7 7.8-1.6 1.7-3.6 2.5-6 2.5-2.6 0-4.4-.9-5.5-2.7v10.1h-4.3v-20.7c0-2.1-.1-4.2-.2-6.3h3.8l.2 3.1h.1c1.4-2.3 3.6-3.5 6.5-3.5 2.3 0 4.2.9 5.7 2.7 1.7 1.7 2.4 4.1 2.4 7m-4.3.2c0-1.9-.4-3.4-1.3-4.7-.9-1.3-2.2-1.9-3.7-1.9-1.1 0-2 .4-2.9 1.1-.9.7-1.4 1.6-1.7 2.8-.1.5-.2 1-.2 1.3v3.2c0 1.4.4 2.6 1.3 3.6s2 1.4 3.4 1.4c1.6 0 2.9-.6 3.8-1.9.8-1.2 1.3-2.9 1.3-4.9"/><path id="XMLID_172_" class="st1" d="M-131.5 416.7c0 3.3-.9 5.9-2.7 7.8-1.6 1.7-3.6 2.5-6 2.5-2.6 0-4.4-.9-5.5-2.7v10.1h-4.3v-20.7c0-2.1-.1-4.2-.2-6.3h3.8l.2 3.1h.1c1.4-2.3 3.6-3.5 6.5-3.5 2.3 0 4.2.9 5.7 2.7 1.7 1.7 2.4 4.1 2.4 7m-4.3.2c0-1.9-.4-3.4-1.3-4.7-.9-1.3-2.2-1.9-3.7-1.9-1.1 0-2 .4-2.9 1.1-.9.7-1.4 1.6-1.7 2.8-.1.5-.2 1-.2 1.3v3.2c0 1.4.4 2.6 1.3 3.6s2 1.4 3.4 1.4c1.6 0 2.9-.6 3.8-1.9.8-1.2 1.3-2.9 1.3-4.9"/><path id="XMLID_171_" class="st1" d="M-106.6 419.1c0 2.3-.8 4.1-2.4 5.6-1.7 1.6-4.2 2.3-7.3 2.3-2.9 0-5.2-.6-6.9-1.7l1-3.6c1.9 1.1 3.9 1.7 6.2 1.7 1.6 0 2.9-.4 3.8-1.1.9-.7 1.4-1.7 1.4-2.9 0-1.1-.4-2-1.1-2.7-.7-.7-2-1.4-3.7-2.1-4.7-1.7-7-4.3-7-7.7 0-2.2.8-4 2.5-5.4s3.8-2.1 6.6-2.1c2.4 0 4.5.4 6.1 1.3l-1.1 3.5c-1.5-.8-3.2-1.2-5.1-1.2-1.5 0-2.7.4-3.6 1.1-.7.7-1.1 1.5-1.1 2.4 0 1.1.4 1.9 1.2 2.6.7.6 2 1.3 3.9 2.1 2.3.9 4 2 5.1 3.3.9 1.2 1.5 2.8 1.5 4.6"/><path id="XMLID_170_" class="st1" d="M-92.4 410.5h-4.7v9.4c0 2.4.8 3.6 2.5 3.6.8 0 1.4-.1 1.9-.2l.1 3.3c-.8.3-2 .5-3.3.5-1.7 0-3-.5-4-1.6-1-1-1.4-2.8-1.4-5.2v-9.7h-2.8v-3.2h2.8v-3.5l4.2-1.3v4.8h4.7v3.1z"/><path id="XMLID_167_" class="st1" d="M-71.1 416.8c0 3-.8 5.4-2.5 7.3-1.8 2-4.1 2.9-7.1 2.9-2.8 0-5.1-.9-6.8-2.8-1.7-1.9-2.5-4.3-2.5-7.1 0-3 .9-5.4 2.6-7.3 1.7-1.9 4.1-2.9 7-2.9 2.8 0 5.1.9 6.8 2.8 1.7 1.9 2.5 4.2 2.5 7.1m-4.5.1c0-1.8-.4-3.3-1.1-4.6-.9-1.5-2.2-2.3-3.9-2.3s-3 .8-3.9 2.3c-.8 1.3-1.2 2.8-1.2 4.6 0 1.8.4 3.3 1.2 4.6.9 1.5 2.2 2.3 3.9 2.3 1.6 0 2.9-.8 3.9-2.3.7-1.3 1.1-2.8 1.1-4.6"/><path id="XMLID_166_" class="st1" d="M-57.2 411.1c-.4-.1-.9-.1-1.4-.1-1.5 0-2.7.6-3.5 1.7-.7 1-1.1 2.3-1.1 3.8v10.1h-4.3v-13.2c0-2.2 0-4.2-.1-6.1h3.7l.2 3.7h.1c.5-1.3 1.2-2.3 2.1-3.1 1-.7 2-1 3.1-1 .4 0 .8 0 1.1.1l.1 4.1z"/><path id="XMLID_163_" class="st1" d="M-38 416.1c0 .8 0 1.4-.2 1.9H-51c0 1.9.7 3.4 1.9 4.4 1.1.9 2.5 1.4 4.2 1.4 1.9 0 3.6-.3 5.2-.9l.7 3c-1.8.8-4 1.2-6.5 1.2-3 0-5.3-.9-7.1-2.6-1.7-1.8-2.6-4.1-2.6-7.1 0-2.9.8-5.3 2.4-7.3 1.7-2.1 3.9-3.1 6.8-3.1 2.8 0 4.9 1 6.3 3.1 1.1 1.5 1.7 3.6 1.7 6m-4.1-1.1c0-1.3-.3-2.4-.8-3.3-.7-1.2-1.9-1.8-3.4-1.8-1.4 0-2.5.6-3.4 1.7-.7.9-1.1 2-1.3 3.3h8.9v.1z"/><path id="XMLID_160_" class="st1" d="M-185 389.8h-2.4l-1.3-4.1h-4.5l-1.2 4.1h-2.3l4.5-13.9h2.8l4.4 13.9zm-4-5.8l-1.2-3.6c-.1-.4-.4-1.2-.7-2.6-.1.6-.4 1.5-.7 2.6l-1.2 3.6h3.8z"/><path id="XMLID_159_" class="st1" d="M-173.8 379.7l-3.8 10h-2.2l-3.7-10h2.5l1.7 5.3c.3.9.5 1.7.7 2.5h.1c.2-.7.4-1.6.7-2.5l1.7-5.3h2.3z"/><path id="XMLID_156_" class="st1" d="M-163.7 389.8h-2l-.2-1.2h-.1c-.7.9-1.7 1.4-2.9 1.4-.9 0-1.7-.3-2.3-.9-.5-.5-.8-1.2-.8-2 0-1.2.5-2.2 1.5-2.8 1-.6 2.5-1 4.3-.9v-.2c0-1.3-.7-2-2.1-2-1 0-1.9.2-2.6.7l-.5-1.5c.9-.6 2.1-.9 3.4-.9 2.6 0 3.9 1.4 3.9 4.1v3.7c.3 1.1.3 1.9.4 2.5m-2.3-3.5v-1.5c-2.5 0-3.7.6-3.7 2 0 .5.1.9.4 1.2.3.3.7.4 1.1.4.5 0 .9-.2 1.4-.5.4-.3.7-.7.8-1.2v-.4z"/><path id="XMLID_153_" class="st1" d="M-157.5 376.8c0 .4-.1.7-.4 1-.3.2-.6.4-1 .4s-.7-.1-.9-.4c-.3-.3-.4-.6-.4-1s.1-.7.4-.9c.3-.2.6-.4 1-.4s.7.1 1 .4c.2.2.3.5.3.9m-.2 13h-2.3v-10h2.2v10h.1z"/><path id="XMLID_152_" class="st1" d="M-153.8 375.1h2.2v14.6h-2.2z"/><path id="XMLID_149_" class="st1" d="M-140.1 389.8h-2l-.2-1.2h-.1c-.7.9-1.7 1.4-2.9 1.4-.9 0-1.7-.3-2.3-.9-.5-.5-.8-1.2-.8-2 0-1.2.5-2.2 1.5-2.8 1-.6 2.5-1 4.3-.9v-.2c0-1.3-.7-2-2.1-2-1 0-1.9.2-2.6.7l-.5-1.5c.9-.6 2.1-.9 3.4-.9 2.6 0 3.9 1.4 3.9 4.1v3.7c.3 1.1.3 1.9.4 2.5m-2.3-3.5v-1.5c-2.5 0-3.7.6-3.7 2 0 .5.1.9.4 1.2s.7.4 1.1.4c.5 0 .9-.2 1.4-.5.4-.3.7-.7.8-1.2v-.4z"/><path id="XMLID_146_" class="st1" d="M-126.8 384.6c0 1.7-.5 3-1.4 4-.8.9-1.8 1.3-3 1.3-1.4 0-2.5-.6-3.2-1.8l-.1 1.5h-1.9c.1-.8.1-1.7.1-2.7v-11.7h2.2v6.1c.7-1.1 1.7-1.7 3.2-1.7 1.2 0 2.2.5 3 1.4.7.9 1.1 2.1 1.1 3.6m-2.2.1c0-1-.2-1.8-.7-2.4-.5-.7-1.1-1-2-1-.5 0-1 .2-1.5.5-.4.4-.7.8-.9 1.4-.1.2-.1.5-.1.7v1.7c0 .7.2 1.3.7 1.8s1 .7 1.7.7c.8 0 1.5-.3 2-.9.5-.6.8-1.4.8-2.5"/><path id="XMLID_145_" class="st1" d="M-123.5 375.1h2.2v14.6h-2.2z"/><path id="XMLID_142_" class="st1" d="M-109 384.3c0 .4 0 .7-.1 1h-6.7c0 1 .3 1.7 1 2.3.6.5 1.3.7 2.2.7 1 0 1.9-.2 2.7-.5l.3 1.5c-.9.4-2.1.6-3.4.6-1.6 0-2.8-.5-3.7-1.4s-1.3-2.1-1.3-3.7c0-1.5.4-2.8 1.2-3.8.9-1.1 2-1.6 3.5-1.6 1.4 0 2.5.5 3.3 1.6.7 1 1 2 1 3.3m-2.2-.6c0-.7-.1-1.2-.4-1.7-.4-.6-1-.9-1.8-.9-.7 0-1.3.3-1.8.9-.4.5-.6 1.1-.7 1.7h4.7z"/><path id="XMLID_139_" class="st1" d="M-90.6 384.7c0 1.5-.4 2.8-1.3 3.8s-2.1 1.5-3.7 1.5c-1.5 0-2.6-.5-3.5-1.5s-1.3-2.2-1.3-3.7c0-1.6.4-2.8 1.4-3.8.9-1 2.1-1.5 3.6-1.5s2.7.5 3.5 1.5c.8.9 1.3 2.2 1.3 3.7m-2.4 0c0-.9-.2-1.7-.6-2.4-.5-.8-1.1-1.2-2-1.2s-1.6.4-2 1.2c-.4.7-.6 1.5-.6 2.4 0 .9.2 1.7.6 2.4.5.8 1.2 1.2 2 1.2s1.5-.4 2-1.2c.4-.7.6-1.5.6-2.4"/><path id="XMLID_138_" class="st1" d="M-78.6 389.8h-2.2V384c0-1.8-.7-2.7-2-2.7-.7 0-1.2.2-1.6.7-.4.5-.6 1.1-.6 1.7v6h-2.2v-7.2c0-.9 0-1.8-.1-2.9h2l.1 1.5h.1c.3-.5.6-.9 1.2-1.2.6-.4 1.3-.6 2-.6.9 0 1.7.3 2.3.9.8.7 1.2 1.8 1.2 3.3v6.3h-.2z"/><path id="XMLID_137_" class="st1" d="M-64.1 381.4h-2.4v4.9c0 1.2.4 1.9 1.3 1.9.4 0 .7 0 1-.1l.1 1.7c-.4.2-1 .2-1.7.2-.9 0-1.6-.3-2.1-.8s-.7-1.4-.7-2.7v-5h-1.5v-1.8h1.5v-1.8l2.2-.7v2.5h2.5v1.7h-.2z"/><path id="XMLID_136_" class="st1" d="M-52.3 389.8h-2.2v-5.7c0-1.8-.7-2.7-2-2.7-1 0-1.7.5-2.1 1.6-.1.2-.1.5-.1.8v6H-61v-14.6h2.2v6c.7-1.1 1.7-1.6 3-1.6.9 0 1.7.3 2.3.9.8.8 1.1 1.9 1.1 3.4l.1 5.9z"/><path id="XMLID_133_" class="st1" d="M-40.8 384.3c0 .4 0 .7-.1 1h-6.7c0 1 .3 1.7 1 2.3.6.5 1.3.7 2.2.7 1 0 1.9-.2 2.7-.5l.4 1.5c-.9.4-2.1.6-3.4.6-1.5 0-2.8-.5-3.7-1.4s-1.3-2.1-1.3-3.7c0-1.5.4-2.8 1.2-3.8.9-1.1 2-1.6 3.5-1.6 1.4 0 2.5.5 3.3 1.6.6 1 .9 2 .9 3.3m-2.2-.6c0-.7-.1-1.2-.4-1.7-.4-.6-1-.9-1.8-.9-.7 0-1.3.3-1.8.9-.4.5-.6 1.1-.7 1.7h4.7z"/></g></svg>