<svg id="Layer_1" xmlns="http://www.w3.org/2000/svg" xmlns:xlink="http://www.w3.org/1999/xlink" viewBox="0 0 183 105"><style>.st0{fill:#ffcb28}.st1{fill:#4f4e4f}.st2{clip-path:url(#XMLID_55_);fill:url(#XMLID_56_)}.st3{clip-path:url(#XMLID_57_);fill:url(#XMLID_58_)}.st4{fill:#daa328}.st5{fill:url(#XMLID_59_)}</style><g id="XMLID_2427_"><g id="XMLID_2448_"><g id="XMLID_2449_"><defs><path id="XMLID_2450_" transform="matrix(-1 -.00509 .00509 -1 184.447 117.651)" d="M33.3 30.4h118.1v56.5H33.3z"/></defs><clipPath id="XMLID_54_"><use xlink:href="#XMLID_2450_" overflow="visible"/></clipPath></g></g><path id="XMLID_2447_" class="st0" d="M31.6 69.7c4.5-23 24.8-40.4 49.1-40.3 14.2.1 27 6.1 36 15.7 16.6 2.5 25.9 7.9 31.7 22.1 1.4 3.3-1.1 7.9-4.6 7.8h-5.5c0-.4.1-.7.1-1.1 0-7-5.6-12.8-12.6-12.8s-12.7 5.6-12.8 12.7v1.1l-50.4-.3c0-.4.1-.7.1-1.1 0-7-5.6-12.8-12.6-12.8s-12.7 5.6-12.8 12.7v1.1h-1.7c-2.6.1-4.5-2.3-4-4.8z"/><g id="XMLID_2444_"><path id="XMLID_2446_" class="st1" d="M79.3 34.4l-.1 9.9-23.7-.1c6.2-5.7 14.5-9.4 23.8-9.8z"/><path id="XMLID_2445_" class="st1" d="M83.2 34.4c9.5.5 18 4.2 24.1 10.1l-24.2-.1.1-10z"/></g><ellipse id="XMLID_2443_" transform="matrix(-1 -.00509 .00509 -1 250.846 148.525)" class="st1" cx="125.6" cy="73.9" rx="11.7" ry="11.7"/><ellipse id="XMLID_2442_" transform="matrix(-1 -.00509 .00509 -1 99.4 147.37)" class="st1" cx="49.9" cy="73.6" rx="11.7" ry="11.7"/><g id="XMLID_2439_"><defs><ellipse id="XMLID_2440_" transform="matrix(-1 -.00509 .00509 -1 99.4 147.37)" cx="49.9" cy="73.6" rx="11.7" ry="11.7"/></defs><clipPath id="XMLID_55_"><use xlink:href="#XMLID_2440_" overflow="visible"/></clipPath><linearGradient id="XMLID_56_" gradientUnits="userSpaceOnUse" x1="61.749" y1="-8.826" x2="67.371" y2="-40.943" gradientTransform="matrix(.7087 .7159 -.7107 .7035 -15.495 46.78)"><stop offset="0" stop-opacity="0"/><stop offset=".021" stop-color="#080808" stop-opacity=".019"/><stop offset=".298" stop-color="#29272e" stop-opacity=".268"/><stop offset=".544" stop-color="#24222e" stop-opacity=".489"/><stop offset=".75" stop-color="#1a1c2c" stop-opacity=".675"/><stop offset=".908" stop-color="#11162a" stop-opacity=".818"/><stop offset="1" stop-color="#0c1329" stop-opacity=".9"/></linearGradient><path id="XMLID_2441_" class="st2" d="M45.9 94.1L29.4 77.4 50 56.9l16.5 16.7z"/></g><g id="XMLID_2436_"><defs><ellipse id="XMLID_2437_" transform="matrix(-1 -.00509 .00509 -1 250.846 148.525)" cx="125.6" cy="73.9" rx="11.7" ry="11.7"/></defs><clipPath id="XMLID_57_"><use xlink:href="#XMLID_2437_" overflow="visible"/></clipPath><linearGradient id="XMLID_58_" gradientUnits="userSpaceOnUse" x1="114.906" y1="-62.371" x2="120.528" y2="-94.488" gradientTransform="matrix(.7087 .7159 -.7107 .7035 -15.495 46.78)"><stop offset="0" stop-opacity="0"/><stop offset=".021" stop-color="#080808" stop-opacity=".019"/><stop offset=".298" stop-color="#29272e" stop-opacity=".268"/><stop offset=".544" stop-color="#24222e" stop-opacity=".489"/><stop offset=".75" stop-color="#1a1c2c" stop-opacity=".675"/><stop offset=".908" stop-color="#11162a" stop-opacity=".818"/><stop offset="1" stop-color="#0c1329" stop-opacity=".9"/></linearGradient><path id="XMLID_2438_" class="st3" d="M121.6 94.5l-16.5-16.7 20.6-20.5L142.2 74z"/></g><path id="XMLID_2435_" class="st4" d="M93.6 53.1h-7.3c-.3 0-.5-.2-.5-.5s.2-.5.5-.5h7.3c.3 0 .5.2.5.5-.1.3-.3.5-.5.5z"/><path id="XMLID_2434_" transform="matrix(1 .00509 -.00509 1 .27 -.3)" d="M57.1 50.8h4.1v4.1h-4.1z"/><path id="XMLID_2433_" transform="matrix(1 .00509 -.00509 1 .291 -.32)" d="M61.2 55h4.1v4.1h-4.1z"/><path id="XMLID_2432_" transform="matrix(1 .00509 -.00509 1 .27 -.342)" d="M65.3 50.9h4.1V55h-4.1z"/><path id="XMLID_2431_" transform="matrix(1 .00509 -.00509 1 .291 -.363)" d="M69.4 55h4.1v4.1h-4.1z"/><path id="XMLID_2430_" transform="matrix(1 .00509 -.00509 1 .27 -.384)" d="M73.5 50.9h4.1V55h-4.1z"/><linearGradient id="XMLID_59_" gradientUnits="userSpaceOnUse" x1="40.248" y1="-16551.125" x2="50.335" y2="-16551.125" gradientTransform="matrix(1 .00507 .00507 -1 113.946 -16491.627)"><stop offset="0" stop-color="#dba328" stop-opacity="0"/><stop offset="1" stop-color="#dba328"/></linearGradient><path id="XMLID_2429_" class="st5" d="M70.2 74.7l10.1.1s-1.2-.2-1.2-1.4c0-7.3.1-29.1.1-29.1h-8.8l-.2 30.4z"/><path id="XMLID_2428_" class="st0" d="M96.4 33.9l-5.2-1.6 3.7-9.2 3.3 1z"/></g></svg>