<svg id="Layer_1" xmlns="http://www.w3.org/2000/svg" xmlns:xlink="http://www.w3.org/1999/xlink" viewBox="0 0 135 147"><style>.st0{fill:#ffcb28}.st1{fill:#4f4e4f}.st2{clip-path:url(#XMLID_55_);fill:url(#XMLID_56_)}.st3{clip-path:url(#XMLID_57_);fill:url(#XMLID_58_)}.st4{fill:#daa328}.st5{fill:url(#XMLID_59_)}</style><g id="XMLID_2427_"><g id="XMLID_2448_"><g id="XMLID_2449_"><defs><path id="XMLID_2450_" d="M46.9 141.6L31.7 28.8l53.8-7.2 15.2 112.7z"/></defs><clipPath id="XMLID_54_"><use xlink:href="#XMLID_2450_" overflow="visible"/></clipPath></g></g><path id="XMLID_2447_" class="st0" d="M84.9 138.1c-22.5-1.2-41.7-18.3-44.9-41.5C38.2 83 42.2 70 50.2 60.1c.1-16.1 4-25.7 16.8-33.2 3-1.7 7.6 0 8.1 3.4l.7 5.3c-.3 0-.7 0-1 .1-6.7.9-11.4 7.1-10.5 13.8.8 6.7 7 11.4 13.7 10.5.3 0 .7-.1 1-.2l6.5 48.2c-.3 0-.7 0-1 .1-6.7.9-11.4 7.1-10.5 13.8.9 6.7 7.1 11.4 13.8 10.5.3 0 .7-.1 1-.2l.2 1.6c.3 2.3-1.7 4.4-4.1 4.3z"/><g id="XMLID_2444_"><path id="XMLID_2446_" class="st1" d="M44.9 97.3l9.4-1.3 3.1 22.6c-6.2-5-10.8-12.5-12.5-21.3z"/><path id="XMLID_2445_" class="st1" d="M44.4 93.6c-.8-9.1 1.6-17.7 6.4-24.4l3.1 23.1-9.5 1.3z"/></g><ellipse id="XMLID_2443_" transform="rotate(82.311 76.362 47.82)" class="st1" cx="76.4" cy="47.8" rx="11.3" ry="11.3"/><ellipse id="XMLID_2442_" transform="rotate(82.311 86.127 120.137)" class="st1" cx="86.1" cy="120.1" rx="11.3" ry="11.3"/><g id="XMLID_2439_"><defs><ellipse id="XMLID_2440_" transform="rotate(82.311 86.127 120.137)" cx="86.1" cy="120.1" rx="11.3" ry="11.3"/></defs><clipPath id="XMLID_55_"><use xlink:href="#XMLID_2440_" overflow="visible"/></clipPath><linearGradient id="XMLID_56_" gradientUnits="userSpaceOnUse" x1="127.854" y1="-203.826" x2="133.27" y2="-234.771" gradientTransform="matrix(.6106 -.8012 .7953 .6062 182.915 359.273)"><stop offset="0" stop-opacity="0"/><stop offset=".021" stop-color="#080808" stop-opacity=".019"/><stop offset=".298" stop-color="#29272e" stop-opacity=".268"/><stop offset=".544" stop-color="#24222e" stop-opacity=".489"/><stop offset=".75" stop-color="#1a1c2c" stop-opacity=".675"/><stop offset=".908" stop-color="#11162a" stop-opacity=".818"/><stop offset="1" stop-color="#0c1329" stop-opacity=".9"/></linearGradient><path id="XMLID_2441_" class="st2" d="M106.2 121.2l-13.7 18-22.3-16.9 13.8-18z"/></g><g id="XMLID_2436_"><defs><ellipse id="XMLID_2437_" transform="rotate(82.311 76.362 47.82)" cx="76.4" cy="47.8" rx="11.3" ry="11.3"/></defs><clipPath id="XMLID_57_"><use xlink:href="#XMLID_2437_" overflow="visible"/></clipPath><linearGradient id="XMLID_58_" gradientUnits="userSpaceOnUse" x1="179.074" y1="-255.43" x2="184.491" y2="-286.375" gradientTransform="matrix(.6106 -.8012 .7953 .6062 182.915 359.273)"><stop offset="0" stop-opacity="0"/><stop offset=".021" stop-color="#080808" stop-opacity=".019"/><stop offset=".298" stop-color="#29272e" stop-opacity=".268"/><stop offset=".544" stop-color="#24222e" stop-opacity=".489"/><stop offset=".75" stop-color="#1a1c2c" stop-opacity=".675"/><stop offset=".908" stop-color="#11162a" stop-opacity=".818"/><stop offset="1" stop-color="#0c1329" stop-opacity=".9"/></linearGradient><path id="XMLID_2438_" class="st3" d="M96.4 48.9l-13.7 18-22.2-17L74.2 32z"/></g><path id="XMLID_2435_" class="st4" d="M60.8 81.1l1 7.3c0 .2-.1.4-.3.4h-.2c-.2 0-.4-.1-.4-.3l-1-7.3c0-.2.1-.4.3-.4h.2c.2-.1.4.1.4.3z"/><path id="XMLID_2434_" transform="rotate(-97.689 65.24 114.056)" d="M63.3 112.1h4v4h-4z"/><path id="XMLID_2433_" transform="rotate(-97.689 68.646 109.59)" d="M66.7 107.6h4v4h-4z"/><path id="XMLID_2432_" transform="rotate(-97.689 64.182 106.22)" d="M62.2 104.2h4v4h-4z"/><path id="XMLID_2431_" transform="rotate(-97.689 67.588 101.753)" d="M65.6 99.8h4v4h-4z"/><path id="XMLID_2430_" transform="rotate(-97.689 63.12 98.35)" d="M61.1 96.4h4v4h-4z"/><linearGradient id="XMLID_59_" gradientUnits="userSpaceOnUse" x1="316.155" y1="-16234.905" x2="325.875" y2="-16234.905" gradientTransform="scale(-1 1) rotate(-82.316 9468.417 -7845.075)"><stop offset="0" stop-color="#dba328" stop-opacity="0"/><stop offset="1" stop-color="#dba328"/></linearGradient><path id="XMLID_2429_" class="st5" d="M84.5 100.6L83.2 91s0 1.2-1.1 1.4c-6.9.8-27.8 3.6-27.8 3.6l1.1 8.4 29.1-3.8z"/><path id="XMLID_2428_" class="st0" d="M42.2 81l-.8 5.2-9.3-2.3.5-3.2z"/></g></svg>