<svg id="Layer_1" xmlns="http://www.w3.org/2000/svg" xmlns:xlink="http://www.w3.org/1999/xlink" viewBox="0 0 1366 569.2"><style>.st0{fill:#ffcb28}.st1{fill:#4f4e4f}.st2{clip-path:url(#XMLID_3_);fill:url(#XMLID_4_)}.st3{clip-path:url(#XMLID_5_);fill:url(#XMLID_6_)}.st4{fill:#daa328}.st5{fill:url(#XMLID_7_)}</style><g id="XMLID_2427_"><g id="XMLID_2448_"><g id="XMLID_2449_"><defs><path id="XMLID_2450_" transform="rotate(-112.923 692.125 262.918)" d="M641.1 238.6h102.1v48.7H641.1z"/></defs><clipPath id="XMLID_2_"><use xlink:href="#XMLID_2450_" overflow="visible"/></clipPath></g></g><path id="XMLID_2447_" class="st0" d="M662.6 218.4c19.8-4.2 40.4 6 48.6 25.3 4.8 11.3 4.4 23.5-.2 34 3.7 14 2.6 23.2-6.7 32.7-2.2 2.2-6.6 1.8-7.8-1l-1.9-4.4.9-.3c5.6-2.4 8.2-8.8 5.8-14.4s-8.8-8.2-14.4-5.8c-.3.1-.6.3-.8.4l-17-40.2.9-.3c5.6-2.4 8.2-8.8 5.8-14.4-2.4-5.6-8.8-8.2-14.4-5.8-.3.1-.6.3-.8.4l-.6-1.3c-.8-2.1.4-4.4 2.6-4.9z"/><g id="XMLID_2444_"><path id="XMLID_2446_" class="st1" d="M706.8 244.3l-7.9 3.3-8-18.9c6.7 3 12.4 8.4 15.9 15.6z"/><path id="XMLID_2445_" class="st1" d="M708.2 247.4c2.9 7.7 2.8 15.7.2 22.6l-8.1-19.3 7.9-3.3z"/></g><circle id="XMLID_2443_" class="st1" cx="691.3" cy="294.6" r="10.1"/><circle id="XMLID_2442_" class="st1" cx="665.8" cy="234.2" r="10.1"/><g id="XMLID_2439_"><defs><circle id="XMLID_2440_" cx="665.8" cy="234.2" r="10.1"/></defs><clipPath id="XMLID_3_"><use xlink:href="#XMLID_2440_" overflow="visible"/></clipPath><linearGradient id="XMLID_4_" gradientUnits="userSpaceOnUse" x1="443.033" y1="389.93" x2="447.894" y2="362.16" gradientTransform="matrix(-.3786 .9335 -.9267 -.3758 1180.686 -41.179)"><stop offset="0" stop-opacity="0"/><stop offset=".021" stop-color="#080808" stop-opacity=".019"/><stop offset=".298" stop-color="#29272e" stop-opacity=".268"/><stop offset=".544" stop-color="#24222e" stop-opacity=".489"/><stop offset=".75" stop-color="#1a1c2c" stop-opacity=".675"/><stop offset=".908" stop-color="#11162a" stop-opacity=".818"/><stop offset="1" stop-color="#0c1329" stop-opacity=".9"/></linearGradient><path id="XMLID_2441_" class="st2" d="M648.1 238l7.7-18.8 23.2 9.5-7.6 18.8z"/></g><g id="XMLID_2436_"><defs><circle id="XMLID_2437_" cx="691.3" cy="294.6" r="10.1"/></defs><clipPath id="XMLID_5_"><use xlink:href="#XMLID_2437_" overflow="visible"/></clipPath><linearGradient id="XMLID_6_" gradientUnits="userSpaceOnUse" x1="489.005" y1="343.621" x2="493.865" y2="315.851" gradientTransform="matrix(-.3786 .9335 -.9267 -.3758 1180.686 -41.179)"><stop offset="0" stop-opacity="0"/><stop offset=".021" stop-color="#080808" stop-opacity=".019"/><stop offset=".298" stop-color="#29272e" stop-opacity=".268"/><stop offset=".544" stop-color="#24222e" stop-opacity=".489"/><stop offset=".75" stop-color="#1a1c2c" stop-opacity=".675"/><stop offset=".908" stop-color="#11162a" stop-opacity=".818"/><stop offset="1" stop-color="#0c1329" stop-opacity=".9"/></linearGradient><path id="XMLID_2438_" class="st3" d="M673.6 298.4l7.7-18.9 23.2 9.5-7.6 18.8z"/></g><path id="XMLID_2435_" class="st4" d="M696.9 262.1l-2.5-6c-.1-.2 0-.4.2-.4l.1-.1c.2-.1.4 0 .4.2l2.5 6c.1.2 0 .4-.2.4l-.1.1c-.2 0-.4-.1-.4-.2z"/><path id="XMLID_2434_" transform="rotate(67.077 685.273 234.548)" d="M683.5 232.8h3.6v3.6h-3.6z"/><path id="XMLID_2433_" transform="rotate(67.077 683.379 239.218)" d="M681.6 237.5h3.6v3.6h-3.6z"/><path id="XMLID_2432_" transform="rotate(67.077 688.038 241.084)" d="M686.3 239.3h3.6v3.6h-3.6z"/><path id="XMLID_2431_" transform="rotate(67.077 686.144 245.754)" d="M684.4 244h3.6v3.6h-3.6z"/><path id="XMLID_2430_" transform="rotate(67.077 690.814 247.648)" d="M689 245.9h3.6v3.6H689z"/><linearGradient id="XMLID_7_" gradientUnits="userSpaceOnUse" x1="468.525" y1="-16027.574" x2="477.249" y2="-16027.574" gradientTransform="scale(1 -1) rotate(-67.076 12481.555 -8298.784)"><stop offset="0" stop-color="#dba328" stop-opacity="0"/><stop offset="1" stop-color="#dba328"/></linearGradient><path id="XMLID_2429_" class="st5" d="M671.8 250.8l3.4 8s-.3-1 .7-1.4c5.8-2.4 23.1-9.8 23.1-9.8l-3-7-24.2 10.2z"/><path id="XMLID_2428_" class="st0" d="M713 257.7l-.5-4.6 8.5-.2.4 2.9z"/></g></svg>