<svg id="Layer_1" xmlns="http://www.w3.org/2000/svg" width="101" height="101" viewBox="-47 320.9 101 101"><style>.st0{fill:#3b5999}.st1{fill:#fff}</style><circle class="st0" cx="4" cy="371.9" r="50"/><path class="st1" d="M19.2 341.9h-7.9c-8.9 0-14.6 5.8-14.6 14.8v6.8h-8c-.7 0-1.2.5-1.2 1.2v9.9c0 .7.6 1.2 1.2 1.2h8v24.9c0 .7.6 1.2 1.2 1.2H8.3c.7 0 1.2-.5 1.2-1.2v-24.9h9.3c.7 0 1.2-.5 1.2-1.2v-9.9c0-.3-.1-.6-.4-.9-.2-.2-.5-.4-.9-.4H9.4v-5.8c0-2.8.7-4.2 4.3-4.2H19c.7 0 1.2-.5 1.2-1.2V343c.3-.5-.3-1.1-1-1.1z"/></svg>