<svg id="Layer_1" xmlns="http://www.w3.org/2000/svg" xmlns:xlink="http://www.w3.org/1999/xlink" width="310" height="90" viewBox="121.9 373.9 310 90"><style>.st0{fill:#434343}.st1{clip-path:url(#SVGID_2_);fill:url(#XMLID_3_)}.st2{clip-path:url(#SVGID_4_);fill:url(#XMLID_7_)}.st3{clip-path:url(#SVGID_6_);fill:url(#XMLID_9_)}.st4{clip-path:url(#SVGID_8_);fill:url(#XMLID_10_)}.st5{fill:#f9f9f9}.st6{fill:#f9f9fa}</style><path id="XMLID_4_" class="st0" d="M386.9 463.9h-220c-24.9 0-45-20.1-45-45s20.1-45 45-45h220c24.9 0 45 20.1 45 45s-20.1 45-45 45z"/><g id="XMLID_77_"><g id="PLAY_1_"><defs><path id="SVGID_1_" d="M200.4 410.8l-12.1-7s-22.1-12.8-23.4-13.5c-1.3-.8-2.6-.3-2.6 1.3v55.1c0 1.2.9 1.7 2.1 1 1.1-.7 23.9-13.8 23.9-13.8l12.1-7s10.3-5.9 11.7-6.7c1.4-.8 1.2-1.9.1-2.5-1.2-.8-11.8-6.9-11.8-6.9z"/></defs><clipPath id="SVGID_2_"><use xlink:href="#SVGID_1_" overflow="visible"/></clipPath><linearGradient id="XMLID_3_" gradientUnits="userSpaceOnUse" x1="177.35" y1="454.68" x2="177.35" y2="395.08" gradientTransform="matrix(1 0 0 -1 0 843.67)"><stop offset="0" stop-color="#257cb0"/><stop offset=".286" stop-color="#4a93b5"/><stop offset=".767" stop-color="#78bcbb"/><stop offset="1" stop-color="#89cfbd"/></linearGradient><path id="XMLID_76_" class="st1" d="M162.3 389v59.6l30.1-29.8z"/><g><defs><path id="SVGID_3_" d="M200.4 410.8l-12.1-7s-22.1-12.8-23.4-13.5c-1.3-.8-2.6-.3-2.6 1.3v55.1c0 1.2.9 1.7 2.1 1 1.1-.7 23.9-13.8 23.9-13.8l12.1-7s10.3-5.9 11.7-6.7c1.4-.8 1.2-1.9.1-2.5-1.2-.8-11.8-6.9-11.8-6.9z"/></defs><clipPath id="SVGID_4_"><use xlink:href="#SVGID_3_" overflow="visible"/></clipPath><linearGradient id="XMLID_7_" gradientUnits="userSpaceOnUse" x1="162.3" y1="439.88" x2="200.4" y2="439.88" gradientTransform="matrix(1 0 0 -1 0 843.67)"><stop offset="0" stop-color="#52c1ad"/><stop offset="1" stop-color="#dee89a"/></linearGradient><path id="XMLID_75_" class="st2" d="M200.4 410.8l-12.1-7-26-15v.2l30.1 29.8z"/></g><g><defs><path id="SVGID_5_" d="M200.4 410.8l-12.1-7s-22.1-12.8-23.4-13.5c-1.3-.8-2.6-.3-2.6 1.3v55.1c0 1.2.9 1.7 2.1 1 1.1-.7 23.9-13.8 23.9-13.8l12.1-7s10.3-5.9 11.7-6.7c1.4-.8 1.2-1.9.1-2.5-1.2-.8-11.8-6.9-11.8-6.9z"/></defs><clipPath id="SVGID_6_"><use xlink:href="#SVGID_5_" overflow="visible"/></clipPath><linearGradient id="XMLID_9_" gradientUnits="userSpaceOnUse" x1="181.35" y1="424.88" x2="181.35" y2="394.88" gradientTransform="matrix(1 0 0 -1 0 843.67)"><stop offset="0" stop-color="#ec413d"/><stop offset=".167" stop-color="#da4452"/><stop offset=".575" stop-color="#b0487a"/><stop offset=".862" stop-color="#954a92"/><stop offset="1" stop-color="#8a4a9d"/></linearGradient><path id="XMLID_74_" class="st3" d="M162.3 448.6v.2l26-15 12.1-7-8-8z"/></g><g><defs><path id="SVGID_7_" d="M200.4 410.8l-12.1-7s-22.1-12.8-23.4-13.5c-1.3-.8-2.6-.3-2.6 1.3v55.1c0 1.2.9 1.7 2.1 1 1.1-.7 23.9-13.8 23.9-13.8l12.1-7s10.3-5.9 11.7-6.7c1.4-.8 1.2-1.9.1-2.5-1.2-.8-11.8-6.9-11.8-6.9z"/></defs><clipPath id="SVGID_8_"><use xlink:href="#SVGID_7_" overflow="visible"/></clipPath><linearGradient id="XMLID_10_" gradientUnits="userSpaceOnUse" x1="203.35" y1="432.88" x2="203.35" y2="416.88" gradientTransform="matrix(1 0 0 -1 0 843.67)"><stop offset="0" stop-color="#f58879"/><stop offset=".119" stop-color="#f69079"/><stop offset=".713" stop-color="#fcb877"/><stop offset="1" stop-color="#fec874"/></linearGradient><path id="XMLID_73_" class="st4" d="M200.4 410.8l-8 8 8 8 13.9-8z"/></g></g><g id="XMLID_2_"><g id="XMLID_61_"><path id="XMLID_69_" class="st5" d="M351.5 434.1c-1.1 0-2.2-.2-3.1-.6s-1.7-1.1-2.3-1.9h-.2c.1 1 .2 2 .2 2.9v7.1h-2.6v-25.1h2.1l.4 2.4h.1c.7-.9 1.5-1.6 2.4-2.1.9-.4 1.9-.6 3.1-.6 2.3 0 4.1.8 5.3 2.4 1.2 1.6 1.9 3.8 1.9 6.6s-.6 5.1-1.9 6.6-3.1 2.3-5.4 2.3zm-.3-15.7c-1.8 0-3.1.5-3.8 1.5-.8 1-1.2 2.5-1.2 4.7v.6c0 2.4.4 4.2 1.2 5.2.8 1 2.1 1.6 3.9 1.6 1.5 0 2.7-.6 3.5-1.8s1.3-2.9 1.3-5c0-2.2-.4-3.8-1.3-5-.9-1.3-2.1-1.8-3.6-1.8z"/><path id="XMLID_67_" class="st5" d="M364.8 433.8h-2.6v-24.6h2.6v24.6z"/><path id="XMLID_64_" class="st5" d="M379.9 433.8l-.5-2.5h-.1c-.9 1.1-1.7 1.8-2.6 2.2s-1.9.6-3.2.6c-1.7 0-3.1-.4-4-1.3-1-.9-1.5-2.1-1.5-3.8 0-3.5 2.8-5.3 8.4-5.5l2.9-.1v-1.1c0-1.4-.3-2.4-.9-3s-1.5-1-2.8-1c-1.4 0-3.1.4-4.9 1.3l-.8-2c.9-.5 1.8-.8 2.8-1.1 1-.3 2-.4 3.1-.4 2.1 0 3.6.5 4.6 1.4s1.5 2.4 1.5 4.4v11.8h-2v.1zm-5.9-1.9c1.6 0 2.9-.4 3.9-1.3.9-.9 1.4-2.2 1.4-3.8v-1.6l-2.6.1c-2.1.1-3.6.4-4.5 1s-1.4 1.5-1.4 2.7c0 .9.3 1.7.9 2.2.4.5 1.3.7 2.3.7z"/><path id="XMLID_62_" class="st5" d="M383.4 416.5h2.8l3.8 9.9c.8 2.3 1.4 3.9 1.6 4.9h.1c.1-.5.4-1.5.9-2.8.4-1.3 1.9-5.3 4.3-12h2.8l-7.5 19.7c-.7 2-1.6 3.3-2.6 4.2-1 .8-2.2 1.2-3.6 1.2-.8 0-1.6-.1-2.4-.3v-2.1c.6.1 1.2.2 1.9.2 1.8 0 3.1-1 3.9-3l1-2.5-7-17.4z"/></g><g id="XMLID_39_"><path id="XMLID_57_" class="st5" d="M302.9 418.1c.8.7 2.6 2.1 2.6 4.9 0 2.7-1.5 4-3 5.1-.5.5-1 1-1 1.8s.5 1.2.9 1.6l1.3 1c1.6 1.3 3 2.6 3 5.1 0 3.4-3.3 6.9-9.5 6.9-5.3 0-7.8-2.5-7.8-5.2 0-1.3.6-3.2 2.8-4.4 2.2-1.4 5.3-1.6 6.9-1.7-.5-.7-1.1-1.3-1.1-2.5 0-.6.2-1 .4-1.4-.4 0-.8.1-1.2.1-3.8 0-6-2.9-6-5.7 0-1.7.8-3.5 2.3-4.9 2.1-1.7 4.5-2 6.5-2h7.5l-2.3 1.3h-2.3zm-2.6 16.1h-.8c-.3 0-2.3.1-3.8.6-.8.3-3.1 1.2-3.1 3.7 0 2.6 2.5 4.4 6.4 4.4 3.5 0 5.3-1.7 5.3-3.9 0-1.9-1.2-2.9-4-4.8zm1.1-6.9c.8-.8.9-2 .9-2.6 0-2.6-1.6-6.7-4.6-6.7-.9 0-2 .5-2.5 1.2-.6.8-.8 1.7-.8 2.7 0 2.4 1.4 6.5 4.5 6.5.9-.1 1.9-.5 2.5-1.1z"/><path id="XMLID_54_" class="st5" d="M280.1 433.6c-5.8 0-8.8-4.5-8.8-8.5 0-4.7 3.9-8.8 9.4-8.8 5.3 0 8.6 4.2 8.6 8.5s-3.3 8.8-9.2 8.8zm4.5-2.9c.9-1.2 1.1-2.6 1.1-4 0-3.2-1.5-9.3-6-9.3-1.2 0-2.4.5-3.3 1.2-1.4 1.3-1.7 2.9-1.7 4.4 0 3.6 1.8 9.5 6.2 9.5 1.4 0 2.9-.7 3.7-1.8z"/><path id="XMLID_51_" class="st5" d="M260.5 433.6c-5.8 0-8.8-4.5-8.8-8.5 0-4.7 3.9-8.8 9.4-8.8 5.3 0 8.7 4.2 8.7 8.5-.1 4.3-3.4 8.8-9.3 8.8zm4.5-2.9c.9-1.2 1.1-2.6 1.1-4 0-3.2-1.5-9.3-6-9.3-1.2 0-2.4.5-3.3 1.2-1.4 1.3-1.7 2.9-1.7 4.4 0 3.6 1.8 9.5 6.2 9.5 1.4 0 2.9-.7 3.7-1.8z"/><path id="XMLID_49_" class="st5" d="M248.9 433l-5.2 1.2c-2.1.3-4 .6-6 .6-10 0-13.9-7.4-13.9-13.2 0-7.1 5.4-13.6 14.7-13.6 2 0 3.9.3 5.6.8 2.7.8 4 1.7 4.8 2.3l-3 2.9-1.3.3.9-1.5c-1.2-1.2-3.5-3.4-7.8-3.4-5.8 0-10.1 4.4-10.1 10.7 0 6.8 5 13.3 12.9 13.3 2.3 0 3.5-.5 4.6-.9v-5.9l-5.5.3 2.9-1.6h7.7l-.9.9c-.3.2-.3.3-.4.6 0 .3-.1 1.4-.1 1.7v4.5h.1z"/><path id="XMLID_48_" class="st5" d="M314.4 432c-1.2-.1-1.5-.3-1.5-1.7v-20.7-.2c.1-1.3.5-1.5 1.6-2.1h-5.2l-2.7 1.3h2.8v22.5c0 .7-.1.8-1 1.9h6.4l1.3-.8c-.5-.1-1.1-.2-1.7-.2z"/><path id="XMLID_45_" class="st5" d="M329.2 432.3c-.4.2-.8.5-1.2.7-1.2.5-2.4.7-3.5.7-1.2 0-3-.1-4.8-1.4-2.6-1.8-3.7-4.9-3.7-7.6 0-5.6 4.6-8.3 8.3-8.3 1.3 0 2.6.3 3.7 1 1.8 1.2 2.3 2.7 2.5 3.6l-8.5 3.4-2.8.2c.9 4.6 4 7.3 7.4 7.3 1.8 0 3.2-.6 4.4-1.3l-1.8 1.7zm-3.4-10.8c.7-.3 1-.5 1-1 0-1.4-1.6-3.1-3.6-3.1-1.4 0-4.2 1.1-4.2 5 0 .6.1 1.3.1 1.9l6.7-2.8z"/><g id="XMLID_40_"><path id="XMLID_43_" class="st5" d="M332.7 416.5v2.4h-.3v-2.4h-.8v-.2h1.9v.2h-.8z"/><path id="XMLID_41_" class="st5" d="M336 418.9v-2.4l-.7 2.4h-.3l-.7-2.4v2.4h-.3v-2.6h.5l.7 2.1.7-2.1h.5v2.6h-.4z"/></g></g><g id="XMLID_5_"><path id="XMLID_36_" class="st6" d="M231 401h-1.8c0-.2-.2-1-.5-2.1h-2.6c-.4 1.1-.5 1.8-.5 2.1h-1.7c0-.1.4-1.4 1.3-3.6.9-2.3 1.3-3.5 1.3-3.7h2.1c0 .2.4 1.4 1.2 3.7.8 2.1 1.2 3.4 1.2 3.6zm-2.6-3.2c-.6-1.9-1-3-1-3.2h-.1c0 .1-.3 1.2-1 3.2h2.1z"/><path id="XMLID_34_" class="st6" d="M238.3 401h-1.4c0-.2-.5-1-1.6-2.4-1.1-1.6-1.7-2.6-1.9-3.2h-.1c.1.8.1 1.6.1 2.2 0 .9 0 2.1.1 3.4h-1.4c.1-1.2.1-2.5.1-3.8 0-1.4 0-2.5-.1-3.5h1.7c0 .2.5 1 1.4 2.4 1 1.5 1.6 2.5 1.7 3h.1c-.1-.8-.1-1.6-.1-2.3 0-1 0-2.1-.1-3.1h1.4c-.1.9-.1 2.1-.1 3.5.1 1.3.1 2.6.2 3.8z"/><path id="XMLID_31_" class="st6" d="M246.5 397c0 1.1-.3 2-1 2.8-.7.8-1.6 1.2-2.9 1.2-.6 0-1.3 0-2.3-.1 0-1.1.1-2.4.1-3.8s0-2.5-.1-3.5h2.3c1.4 0 2.3.3 3 1 .6.7.9 1.5.9 2.4zm-1.6.3c0-.7-.2-1.3-.6-1.8-.4-.5-1.1-.7-1.9-.7-.2 0-.4 0-.7.1 0 .8.1 1.5.1 2.4s0 1.8.1 2.7c.2 0 .5.1.7.1.8 0 1.4-.3 1.8-.8.4-.7.5-1.3.5-2z"/><path id="XMLID_28_" class="st6" d="M254 401h-1.7c-.4-1.3-.8-2.2-1-2.5-.2-.3-.6-.5-1.1-.5h-.6c0 1 0 1.9.1 2.9h-1.6c0-1.1.1-2.4.1-3.8s0-2.5-.1-3.5h2.7c1.7 0 2.6.6 2.6 1.8 0 .9-.5 1.6-1.5 2v.1c.4.1.7.4 1 .9.3.4.7 1.3 1.1 2.6zm-2.1-5.2c0-.7-.5-1.1-1.4-1.1-.4 0-.7 0-.9.1 0 .6.1 1.3.1 2.3h.5c1.1-.1 1.7-.5 1.7-1.3z"/><path id="XMLID_25_" class="st6" d="M262.1 397.2c0 1.2-.4 2.1-1.1 2.9-.7.8-1.6 1.1-2.6 1.1s-1.8-.3-2.5-1-1-1.6-1-2.7c0-1.2.4-2.1 1.1-2.9.7-.8 1.6-1.1 2.6-1.1s1.8.3 2.5 1 1 1.6 1 2.7zm-1.5.1c0-.8-.2-1.4-.6-1.9-.4-.5-.9-.7-1.5-.7s-1 .2-1.4.7-.6 1.1-.6 1.9c0 .8.2 1.4.6 1.9s.9.7 1.5.7c.5 0 1-.2 1.4-.7s.6-1.1.6-1.9z"/><path id="XMLID_23_" class="st6" d="M265.3 401h-1.6c0-1.2.1-2.5.1-3.8 0-1.4 0-2.5-.1-3.5h1.6c0 .9-.1 2.1-.1 3.5.1 1.3.1 2.6.1 3.8z"/><path id="XMLID_20_" class="st6" d="M273.5 397c0 1.1-.3 2-1 2.8-.7.8-1.6 1.2-2.9 1.2-.6 0-1.3 0-2.3-.1 0-1.1.1-2.4.1-3.8s0-2.5-.1-3.5h2.3c1.4 0 2.3.3 3 1 .6.7.9 1.5.9 2.4zm-1.5.3c0-.7-.2-1.3-.6-1.8s-1.1-.7-1.9-.7c-.2 0-.4 0-.7.1 0 .8.1 1.5.1 2.4s0 1.8.1 2.7c.2 0 .5.1.7.1.8 0 1.4-.3 1.8-.8.3-.7.5-1.3.5-2z"/><path id="XMLID_17_" class="st6" d="M284.4 401h-1.8c0-.2-.2-1-.5-2.1h-2.6c-.4 1.1-.5 1.8-.5 2.1h-1.7c0-.1.4-1.4 1.3-3.6.9-2.3 1.3-3.5 1.3-3.7h2.1c0 .2.4 1.4 1.2 3.7.8 2.1 1.2 3.4 1.2 3.6zm-2.6-3.2c-.6-1.9-1-3-1-3.2h-.1c0 .1-.3 1.2-1 3.2h2.1z"/><path id="XMLID_14_" class="st6" d="M291 395.5c0 .9-.3 1.6-1 2s-1.5.6-2.5.6h-.4c0 .7 0 1.6.1 2.8h-1.6c0-1.1.1-2.4.1-3.8s0-2.5-.1-3.5h2.8c.7 0 1.3.2 1.8.5s.8.8.8 1.4zm-1.5.3c0-.8-.5-1.2-1.6-1.2-.3 0-.6 0-.8.1 0 .7.1 1.5.1 2.4h.3c1.3.1 2-.4 2-1.3z"/><path id="XMLID_11_" class="st6" d="M297.8 395.5c0 .9-.3 1.6-1 2s-1.5.6-2.5.6h-.4c0 .7 0 1.6.1 2.8h-1.6c0-1.1.1-2.4.1-3.8s0-2.5-.1-3.5h2.8c.7 0 1.3.2 1.8.5s.8.8.8 1.4zm-1.5.3c0-.8-.5-1.2-1.6-1.2-.3 0-.6 0-.8.1 0 .7.1 1.5.1 2.4h.3c1.3.1 2-.4 2-1.3z"/><path id="XMLID_8_" class="st6" d="M308.9 397.2c0 1.2-.4 2.1-1.1 2.9-.7.8-1.6 1.1-2.6 1.1s-1.8-.3-2.5-1-1-1.6-1-2.7c0-1.2.4-2.1 1.1-2.9.7-.8 1.6-1.1 2.6-1.1s1.8.3 2.5 1c.6.7 1 1.6 1 2.7zm-1.6.1c0-.8-.2-1.4-.6-1.9s-.9-.7-1.5-.7-1 .2-1.4.7-.6 1.1-.6 1.9c0 .8.2 1.4.6 1.9s.9.7 1.5.7 1-.2 1.4-.7c.4-.5.6-1.1.6-1.9z"/><path id="XMLID_6_" class="st6" d="M316.5 401h-1.4c0-.2-.5-1-1.6-2.4-1.1-1.6-1.7-2.6-1.9-3.2h-.1c.1.8.1 1.6.1 2.2 0 .9 0 2.1.1 3.4h-1.4c.1-1.2.1-2.5.1-3.8 0-1.4 0-2.5-.1-3.5h1.7c0 .2.5 1 1.4 2.4 1 1.5 1.6 2.5 1.7 3h.1c-.1-.8-.1-1.6-.1-2.3 0-1 0-2.1-.1-3.1h1.4c-.1.9-.1 2.1-.1 3.5.1 1.3.2 2.6.2 3.8z"/></g></g></g></svg>