<svg id="Layer_1" xmlns="http://www.w3.org/2000/svg" width="102.2" height="100" viewBox="-47 320.9 102.2 100"><style>.st0{fill:url(#XMLID_2_)}.st1{fill:#fff}</style><linearGradient id="XMLID_2_" gradientUnits="userSpaceOnUse" x1="5.2" y1="421.071" x2="5.2" y2="520.003" gradientTransform="matrix(1 0 0 -1 0 841.67)"><stop offset="0" stop-color="#e19c3e"/><stop offset=".3" stop-color="#c74d4e"/><stop offset=".6" stop-color="#c31c76"/><stop offset="1" stop-color="#6a479c"/></linearGradient><circle id="XMLID_4_" class="st0" cx="5.2" cy="370.9" r="50"/><path id="SVGID_1_" class="st1" d="M17.4 340.9H-6.9c-9.9 0-17.9 8-17.9 17.9v24.3c0 9.9 8 17.9 17.9 17.9h24.3c9.9 0 17.9-8 17.9-17.9v-24.3c-.1-9.9-8.1-17.9-17.9-17.9zM29.2 383c0 6.5-5.3 11.8-11.8 11.8H-6.9c-6.5 0-11.8-5.3-11.8-11.8v-24.2c0-6.5 5.3-11.8 11.8-11.8h24.3c6.5 0 11.8 5.3 11.8 11.8V383z"/><path id="SVGID_3_" class="st1" d="M5.2 355.4c-8.6 0-15.5 7-15.5 15.5 0 8.6 7 15.5 15.5 15.5s15.5-7 15.5-15.5-6.9-15.5-15.5-15.5zm0 25c-5.2 0-9.5-4.2-9.5-9.5 0-5.2 4.2-9.5 9.5-9.5 5.2 0 9.5 4.2 9.5 9.5 0 5.2-4.2 9.5-9.5 9.5z"/><path id="SVGID_5_" class="st1" d="M24.5 355.5c0 2.1-1.7 3.7-3.7 3.7-2.1 0-3.7-1.7-3.7-3.7 0-2.1 1.7-3.7 3.7-3.7s3.7 1.6 3.7 3.7z"/></svg>