<?xml version="1.0" encoding="utf-8"?>
<!-- Generator: Adobe Illustrator 19.1.0, SVG Export Plug-In . SVG Version: 6.00 Build 0)  -->
<svg version="1.1" id="Layer_1" xmlns="http://www.w3.org/2000/svg" xmlns:xlink="http://www.w3.org/1999/xlink" x="0px" y="0px"
	 viewBox="-255 513 1024 1024" style="enable-background:new -255 513 1024 1024;" xml:space="preserve">
<style type="text/css">
	.st0{fill:#FEE016;}
	.st1{fill:#212121;}
</style>
<path class="st0" d="M529,1537H-15c-132,0-240-108-240-240V753c0-132,108-240,240-240h544c132,0,240,108,240,240v544
	C769,1429,661,1537,529,1537z"/>
<g>
	<path class="st1" d="M522.2,833.6h-4l-7.4-17.2c-40.4-93.5-132.3-153.9-234.1-153.9h-31.3c-48.8,0-96.4,13.9-137.5,40.2
		c-41.2,26.3-73.7,63.7-94.2,108L3.1,833.6c-112.9,2.7-203.9,95.4-203.9,208.9v3.1c0,16.6,13.4,30,30,30s30-13.4,30-30v-3.1
		c0-82.2,66.8-149,149-149c20.2,0,38.8-11.9,47.3-30.3L68,835.9C99.8,767,169.4,722.5,245.3,722.5h31.3
		c75.5,0,143.8,43.4,176.1,111.1H139.2c-16.6,0-30,13.4-30,30s13.4,30,30,30h383c75.4,0,136.7,61.3,136.7,136.7
		c0,4.1-3.4,7.5-7.5,7.5h-48.2c-10-48.5-53-85-104.4-85c-58.8,0-106.6,47.8-106.6,106.6c0,58.8,47.8,106.6,106.6,106.6
		c45.2,0,84-28.3,99.4-68.2h53.2c37.2,0,67.5-30.3,67.5-67.5C718.9,921.8,630.7,833.6,522.2,833.6z M498.8,1106
		c-25.7,0-46.6-20.9-46.6-46.6s20.9-46.6,46.6-46.6s46.6,20.9,46.6,46.6S524.5,1106,498.8,1106z"/>
	<path class="st1" d="M117,1104.4h202.1c16.6,0,30-13.4,30-30s-13.4-30-30-30H125.9c-7.3-51.7-51.9-91.6-105.5-91.6
		c-58.8,0-106.6,47.8-106.6,106.6c0,58.8,47.8,106.6,106.6,106.6C63.1,1166,100,1140.8,117,1104.4z M20.4,1106
		c-25.7,0-46.6-20.9-46.6-46.6s20.9-46.6,46.6-46.6s46.6,20.9,46.6,46.6S46.1,1106,20.4,1106z"/>
	<path class="st1" d="M417.1,1269.5c-40,40-92,62-146.6,62c-54.5,0-106.6-22-146.6-62c-11.7-11.7-30.7-11.7-42.4,0
		c-11.7,11.7-11.7,30.7,0,42.4c51.3,51.3,118.4,79.6,189,79.6c70.6,0,137.7-28.3,189-79.6c11.7-11.7,11.7-30.7,0-42.4
		C447.8,1257.8,428.8,1257.8,417.1,1269.5z"/>
</g>
</svg>
