<svg id="Layer_1" xmlns="http://www.w3.org/2000/svg" xmlns:xlink="http://www.w3.org/1999/xlink" width="47.1" height="41.1" viewBox="1006 591.6 47.1 41.1"><style>.st0{fill:#25a69a}.st1{fill:#ffcb28}.st2{fill:#4f4e4f}.st3{clip-path:url(#SVGID_2_);fill:url(#XMLID_3_)}.st4{clip-path:url(#SVGID_4_);fill:url(#XMLID_4_)}.st5{fill:#daa328}.st6{fill:url(#XMLID_5_)}</style><path id="XMLID_1_" class="st0" d="M1038.9 611.5c0 5.8-10.7 21.2-10.7 21.2s-10.7-15.3-10.7-21.2 4.8-10.6 10.7-10.6c5.9 0 10.7 4.8 10.7 10.6z"/><g id="XMLID_2427_"><path id="XMLID_2447_" class="st1" d="M1006 614.4c1.8-9.2 9.9-16.1 19.6-16.1 5.7 0 10.8 2.4 14.5 6.2 6.6.9 10.4 3.1 12.8 8.7.6 1.3-.4 3.1-1.8 3.1h-2.2v-.4c0-2.8-2.3-5.1-5.1-5.1s-5.1 2.3-5.1 5.1v.4h-20.2v-.4c0-2.8-2.3-5.1-5.1-5.1s-5.1 2.3-5.1 5.1v.4h-.7c-1 0-1.8-.9-1.6-1.9z"/><g id="XMLID_2444_"><path id="XMLID_2446_" class="st2" d="M1025.1 600.2v4h-9.5c2.4-2.3 5.7-3.8 9.5-4z"/><path id="XMLID_2445_" class="st2" d="M1026.6 600.2c3.8.2 7.2 1.7 9.7 4h-9.7v-4z"/></g><ellipse id="XMLID_2443_" class="st2" cx="1043.7" cy="615.9" rx="4.7" ry="4.7"/><ellipse id="XMLID_2442_" class="st2" cx="1013.4" cy="615.9" rx="4.7" ry="4.7"/><g id="XMLID_2439_"><defs><circle id="SVGID_1_" cx="1013.4" cy="615.9" r="4.7"/></defs><clipPath id="SVGID_2_"><use xlink:href="#SVGID_1_" overflow="visible"/></clipPath><linearGradient id="XMLID_3_" gradientUnits="userSpaceOnUse" x1="1237.322" y1="103.299" x2="1239.573" y2="116.163" gradientTransform="rotate(-44.997 253.218 -30.16) scale(1.0073 -1)"><stop offset="0" stop-opacity="0"/><stop offset=".021" stop-color="#080808" stop-opacity=".019"/><stop offset=".298" stop-color="#29272e" stop-opacity=".268"/><stop offset=".544" stop-color="#24222e" stop-opacity=".489"/><stop offset=".75" stop-color="#1a1c2c" stop-opacity=".675"/><stop offset=".908" stop-color="#11162a" stop-opacity=".818"/><stop offset="1" stop-color="#0c1329" stop-opacity=".9"/></linearGradient><path id="XMLID_2441_" class="st3" d="M1011.8 624.1l-6.7-6.6 8.3-8.3 6.6 6.7z"/></g><g id="XMLID_2436_"><defs><circle id="SVGID_3_" cx="1043.7" cy="615.9" r="4.7"/></defs><clipPath id="SVGID_4_"><use xlink:href="#SVGID_3_" overflow="visible"/></clipPath><linearGradient id="XMLID_4_" gradientUnits="userSpaceOnUse" x1="1258.596" y1="124.754" x2="1260.848" y2="137.619" gradientTransform="rotate(-44.997 253.218 -30.16) scale(1.0073 -1)"><stop offset="0" stop-opacity="0"/><stop offset=".021" stop-color="#080808" stop-opacity=".019"/><stop offset=".298" stop-color="#29272e" stop-opacity=".268"/><stop offset=".544" stop-color="#24222e" stop-opacity=".489"/><stop offset=".75" stop-color="#1a1c2c" stop-opacity=".675"/><stop offset=".908" stop-color="#11162a" stop-opacity=".818"/><stop offset="1" stop-color="#0c1329" stop-opacity=".9"/></linearGradient><path id="XMLID_2438_" class="st4" d="M1042.1 624.1l-6.6-6.6 8.2-8.3 6.7 6.7z"/></g><path id="XMLID_2435_" class="st5" d="M1030.8 607.7h-3c-.1 0-.2-.1-.2-.2s.1-.2.2-.2h3c.1 0 .2.1.2.2s-.1.2-.2.2z"/><path id="XMLID_2434_" d="M1016.2 606.8h1.7v1.6h-1.7z"/><path id="XMLID_2433_" d="M1017.8 608.5h1.7v1.6h-1.7z"/><path id="XMLID_2432_" d="M1019.5 606.8h1.7v1.6h-1.7z"/><path id="XMLID_2431_" d="M1021.1 608.5h1.7v1.6h-1.7z"/><path id="XMLID_2430_" d="M1022.8 606.8h1.7v1.6h-1.7z"/><linearGradient id="XMLID_5_" gradientUnits="userSpaceOnUse" x1="992.251" y1="17146.281" x2="996.293" y2="17146.281" gradientTransform="translate(28.904 -16536.021)"><stop offset="0" stop-color="#dba328" stop-opacity="0"/><stop offset="1" stop-color="#dba328"/></linearGradient><path id="XMLID_2429_" class="st6" d="M1021.5 616.3h4s-.5-.1-.5-.5v-11.6h-3.5v12.1z"/><path id="XMLID_2428_" class="st1" d="M1031.9 600l-2.1-.6 1.5-3.7 1.3.4z"/></g></svg>