<svg id="Layer_1" xmlns="http://www.w3.org/2000/svg" width="100" height="100" viewBox="-247 370.9 100 100"><style>.st0{fill:#25a69a}.st1{fill:#f5f5f8}</style><circle id="XMLID_3_" class="st0" cx="-197" cy="420.9" r="50"/><g id="XMLID_2_"><g id="XMLID_1_"><path id="XMLID_20_" class="st1" d="M-182.5 398.9c3 0 5.5 2.5 5.5 5.5s-2.5 5.5-5.5 5.5-5.5-2.5-5.5-5.5 2.4-5.5 5.5-5.5m0-5c-5.8 0-10.5 4.7-10.5 10.5s4.7 10.5 10.5 10.5 10.5-4.7 10.5-10.5-4.7-10.5-10.5-10.5z"/></g><g id="XMLID_11_"><g id="XMLID_33_"><path id="XMLID_34_" class="st1" d="M-215.5 415.4c3 0 5.5 2.5 5.5 5.5s-2.5 5.5-5.5 5.5-5.5-2.5-5.5-5.5 2.4-5.5 5.5-5.5m0-5c-5.8 0-10.5 4.7-10.5 10.5s4.7 10.5 10.5 10.5 10.5-4.7 10.5-10.5-4.7-10.5-10.5-10.5z"/></g></g><g id="XMLID_4_"><g id="XMLID_29_"><path id="XMLID_30_" class="st1" d="M-182.5 431.9c3 0 5.5 2.5 5.5 5.5s-2.5 5.5-5.5 5.5-5.5-2.5-5.5-5.5 2.4-5.5 5.5-5.5m0-5c-5.8 0-10.5 4.7-10.5 10.5s4.7 10.5 10.5 10.5 10.5-4.7 10.5-10.5-4.7-10.5-10.5-10.5z"/></g></g><path id="XMLID_9_" transform="scale(-1) rotate(-23.627 -1968.168 -955.178)" class="st1" d="M-210.9 409.2h22.2v5h-22.2z"/><path id="XMLID_19_" transform="scale(-1) rotate(23.627 2055.247 950.481)" class="st1" d="M-209.9 427.4h22.2v5h-22.2z"/></g><text transform="translate(153.84 745.135)"><tspan x="0" y="0" font-family="MyriadPro-Regular" font-size="12">&amp;lt;footer id=&amp;quot;footer&amp;quot; class=&amp;quot;section fifth fp-auto-height&amp;quot;&amp;gt;</tspan><tspan x="0" y="14.4" font-family="MyriadPro-Regular" font-size="12"> &amp;lt;ul class=&amp;quot;socials&amp;quot;&amp;gt;</tspan><tspan x="0" y="28.8" font-family="MyriadPro-Regular" font-size="12"> &amp;lt;li&amp;gt;&amp;lt;a href=&amp;quot;&amp;quot; target=&amp;quot;_blank&amp;quot; class=&amp;quot;vk&amp;quot;&amp;gt;&amp;lt;/a&amp;gt;&amp;lt;/li&amp;gt;</tspan><tspan x="0" y="43.2" font-family="MyriadPro-Regular" font-size="12"> &amp;lt;li&amp;gt;&amp;lt;a href=&amp;quot;&amp;quot; target=&amp;quot;_blank&amp;quot; class=&amp;quot;fb&amp;quot;&amp;gt;&amp;lt;/a&amp;gt;&amp;lt;/li&amp;gt;</tspan><tspan x="0" y="57.6" font-family="MyriadPro-Regular" font-size="12"> &amp;lt;li&amp;gt;&amp;lt;a href=&amp;quot;&amp;quot; target=&amp;quot;_blank&amp;quot; class=&amp;quot;tw&amp;quot;&amp;gt;&amp;lt;/a&amp;gt;&amp;lt;/li&amp;gt;</tspan><tspan x="0" y="72" font-family="MyriadPro-Regular" font-size="12"> &amp;lt;li&amp;gt;&amp;lt;a href=&amp;quot;&amp;quot; target=&amp;quot;_blank&amp;quot; class=&amp;quot;inst&amp;quot;&amp;gt;&amp;lt;/a&amp;gt;&amp;lt;/li&amp;gt;</tspan><tspan x="0" y="86.4" font-family="MyriadPro-Regular" font-size="12"> &amp;lt;li&amp;gt;&amp;lt;a href=&amp;quot;&amp;quot; target=&amp;quot;_blank&amp;quot; class=&amp;quot;share&amp;quot;&amp;gt;&amp;lt;/a&amp;gt;&amp;lt;/li&amp;gt;</tspan><tspan x="0" y="100.8" font-family="MyriadPro-Regular" font-size="12"> &amp;lt;/ul&amp;gt;</tspan><tspan x="0" y="115.2" font-family="MyriadPro-Regular" font-size="12">&amp;lt;/footer&amp;gt;</tspan></text></svg>