<svg id="Layer_1" xmlns="http://www.w3.org/2000/svg" width="100" height="100" viewBox="-47 320.9 100 100"><style>.st0{fill:#3e98d4}.st1{fill:#fff}</style><circle class="st0" cx="3" cy="370.9" r="50"/><path class="st1" d="M33 352.2c-2.2 1-4.6 1.7-7.1 2 2.5-1.5 4.5-4 5.4-6.9-2.4 1.4-5 2.5-7.8 3-2.2-2.4-5.4-3.9-9-3.9-6.8 0-12.3 5.5-12.3 12.4 0 1 .1 1.9.3 2.8-10.2-.5-19.3-5.4-25.4-12.9-1.1 1.8-1.7 4-1.7 6.2 0 4.3 2.2 8.1 5.5 10.3-2-.1-3.9-.6-5.6-1.5v.2c0 6 4.2 11 9.9 12.1-1 .3-2.1.4-3.2.4-.8 0-1.6-.1-2.3-.2 1.6 4.9 6.1 8.5 11.5 8.6-4.2 3.3-9.5 5.3-15.3 5.3-1 0-2-.1-2.9-.2 5.5 3.5 11.9 5.6 18.9 5.6 22.6 0 35-18.8 35-35.2v-1.6c2.4-1.8 4.5-4 6.1-6.5z"/></svg>