<svg id="Layer_1" xmlns="http://www.w3.org/2000/svg" viewBox="0 0 100 100"><style>.st0{fill:#55779b}.st1{fill:#fff}</style><circle class="st0" cx="51.5" cy="53.2" r="50"/><path class="st1" d="M81.2 66.9c-.1-.2-.1-.3-.2-.4-1-1.9-3-4.1-6-6.9-1.3-1.3-2.2-2.1-2.5-2.5-.6-.8-.8-1.7-.4-2.5.3-.6 1.2-2 2.8-4.1.9-1.1 1.5-2 2-2.6 3.6-4.8 5.2-7.8 4.7-9.1l-.2-.3c-.1-.2-.4-.4-1-.5-.5-.2-1.2-.2-2-.1l-9 .1h-.6c-.3.1-.4.1-.4.1l-.3-.1-.1.1-.3.3c-.1.2-.2.3-.3.5-1 2.5-2.1 4.8-3.3 7-.8 1.3-1.5 2.4-2.1 3.3-.6.9-1.2 1.6-1.6 2.1-.4.4-.8.8-1.2 1.1-.4.3-.6.4-.8.3-.2 0-.4-.1-.5-.1-.3-.2-.5-.4-.7-.8-.2-.3-.3-.7-.4-1.2-.1-.5-.1-.9-.1-1.3v-1.5-1.3-2.6c0-.9.1-1.6.1-2.2V40c0-.6 0-1.1-.1-1.4-.1-.3-.2-.7-.3-1-.1-.3-.4-.6-.6-.7-.3-.2-.6-.3-1-.4-1.1-.2-2.5-.4-4.2-.4-3.9 0-6.4.2-7.5.7-.4.2-.8.5-1.2.9-.4.5-.4.7-.2.7 1.3.2 2.1.6 2.7 1.3l.2.4c.1.3.3.7.4 1.4.1.7.2 1.4.3 2.3.1 1.5.1 2.8 0 3.9s-.2 1.9-.3 2.5c-.1.6-.2 1.1-.4 1.5-.2.4-.3.6-.4.7l-.2.2c-.3.1-.6.2-.8.2-.3 0-.6-.1-1.1-.4-.4-.3-.8-.7-1.3-1.2-.4-.5-1-1.2-1.5-2.1-.6-.9-1.1-2-1.7-3.2l-.5-.9c-.3-.6-.7-1.4-1.3-2.5-.5-1.1-1-2.2-1.4-3.2-.2-.4-.4-.8-.8-1l-.2-.1c-.1-.1-.3-.2-.5-.3-.2-.1-.5-.2-.7-.2l-8.6.1c-.9 0-1.5.2-1.8.6l-.1.2c-.1.1-.1.3-.1.5s.1.5.2.8c1.3 2.9 2.6 5.7 4.1 8.4 1.5 2.7 2.7 4.9 3.8 6.5 1.1 1.7 2.2 3.2 3.3 4.7 1.1 1.5 1.9 2.4 2.2 2.8l.9.9.8.7c.5.5 1.2 1.1 2.2 1.8 1 .7 2 1.4 3.2 2 1.2.7 2.5 1.2 4.1 1.6 1.6.4 3.1.6 4.6.5h3.6c.7-.1 1.3-.3 1.7-.7l.1-.2c.1-.1.2-.3.2-.6.1-.3.1-.5.1-.9 0-.9 0-1.7.2-2.4s.3-1.2.5-1.6c.2-.4.4-.7.7-.9.2-.2.4-.4.5-.4.1-.1.2-.1.2-.1.5-.2 1.1 0 1.8.5s1.3 1.1 1.9 1.8c.6.7 1.3 1.5 2.1 2.4.8.9 1.6 1.6 2.2 2l.6.4c.4.2 1 .5 1.6.7.7.2 1.2.3 1.7.2l8-.1c.8 0 1.4-.1 1.8-.4.4-.3.7-.5.8-.9.1-.3.1-.7 0-1.1.1-.2 0-.5-.1-.6zm0 0"/></svg>