<svg id="Layer_1" xmlns="http://www.w3.org/2000/svg" viewBox="0 0 100 100"><style>.st0{fill:#bdbdbd}.st1,.st2{fill:none;stroke:#bdbdbd;stroke-miterlimit:10;stroke-dasharray:2.0191,2.0191}.st2{stroke-dasharray:1.9485,1.9485}</style><path class="st0" d="M41.6 39.4c-7.5 0-13.5 6-13.5 13.5s6 13.5 13.5 13.5 13.5-6 13.5-13.5c0-7.4-6-13.5-13.5-13.5zm0 21.5c-4.4 0-7.9-3.6-7.9-7.9 0-4.4 3.6-7.9 7.9-7.9 4.4 0 7.9 3.6 7.9 7.9.1 4.3-3.5 7.9-7.9 7.9z"/><path class="st0" d="M41.6 39.4c-7.5 0-13.5 6-13.5 13.5s6 13.5 13.5 13.5 13.5-6 13.5-13.5c0-7.4-6-13.5-13.5-13.5zm0 23.5c-5.5 0-9.9-4.4-9.9-9.9s4.4-9.9 9.9-9.9 9.9 4.4 9.9 9.9-4.4 9.9-9.9 9.9z"/><circle class="st1" cx="41.6" cy="52.9" r="13.5"/><circle class="st2" cx="41.6" cy="52.9" r="9.9"/><path class="st0" d="M41.6 47c-3.3 0-6 2.7-6 6s2.7 6 6 6 6-2.7 6-6c0-3.4-2.7-6-6-6zm0 1.2c.4 0 .8.4.8.8s-.4.8-.8.8-.8-.4-.8-.8c.1-.5.4-.8.8-.8zm-3.9 5.5c-.4 0-.8-.4-.8-.8s.4-.8.8-.8.8.4.8.8-.4.8-.8.8zm3.9 4c-.4 0-.8-.4-.8-.8s.4-.8.8-.8.8.4.8.8-.3.8-.8.8zm0-2.8c-1.1 0-2-.9-2-2s.9-2 2-2 2 .9 2 2-.9 2-2 2zm4-1.2c-.4 0-.8-.4-.8-.8s.4-.8.8-.8.8.4.8.8-.3.8-.8.8z"/></svg>